# xmcd CD database file
#
# Track frame offsets:
#	150
#	16013
#	33313
#	83308
#	118143
#	141340
#	172023
#	188848
#	214810
#	264825
#	280318
#
# Disc length: 3800 seconds
#
# Revision: 0
# Processed by: cddbd v1.4PL0 Copyright (c) Steve Scherf et al.
# Submitted via: CDex 1.50
#
DISCID=910ed60b
DTITLE=Duke Jordan - Osaka concert Vol. 2
DYEAR=1976
DGENRE=Jazz
TTITLE0=Two loves
TTITLE1=In my solitude
TTITLE2=No problem
TTITLE3=There's a star for you
TTITLE4=Misty thursday
TTITLE5=Cold Bordeaux blues
TTITLE6=Lady linda
TTITLE7=Forecast
TTITLE8=Cherokee
TTITLE9=Jordu
TTITLE10=Flight to Japan
EXTD=YEAR: 1976
EXTT0=
EXTT1=
EXTT2=
EXTT3=
EXTT4=
EXTT5=
EXTT6=
EXTT7=
EXTT8=
EXTT9=
EXTT10=
PLAYORDER=
